<svg width="35" height="120" viewBox="0 0 35 120" fill="none" xmlns="http://www.w3.org/2000/svg">
<g clip-path="url(#clip0_697_513)">
<path d="M32.17 113.87C26.54 113.87 21.98 108.87 21.98 102.71V17.29C21.98 11.12 26.54 6.13 32.17 6.13H35.03C35.03 4.09 35 2.06 35 0H12.43C5.56 0 0 5.57 0 12.43V107.57C0 114.44 5.57 120 12.43 120H35.62C35.69 117.96 35.57 115.91 35.62 113.87H32.17Z" fill="#5D005E"/>
<path d="M16.3 57.84H6.22995C6.07531 57.84 5.94995 57.9654 5.94995 58.12V61.88C5.94995 62.0346 6.07531 62.16 6.22995 62.16H16.3C16.4546 62.16 16.58 62.0346 16.58 61.88V58.12C16.58 57.9654 16.4546 57.84 16.3 57.84Z" fill="white"/>
<path d="M16.3 36.44H6.22995C6.07531 36.44 5.94995 36.5654 5.94995 36.72V40.48C5.94995 40.6346 6.07531 40.76 6.22995 40.76H16.3C16.4546 40.76 16.58 40.6346 16.58 40.48V36.72C16.58 36.5654 16.4546 36.44 16.3 36.44Z" fill="white"/>
<path d="M16.3 100.63H6.22995C6.07531 100.63 5.94995 100.755 5.94995 100.91V104.67C5.94995 104.825 6.07531 104.95 6.22995 104.95H16.3C16.4546 104.95 16.58 104.825 16.58 104.67V100.91C16.58 100.755 16.4546 100.63 16.3 100.63Z" fill="white"/>
<path d="M16.3 15.05H6.22995C6.07531 15.05 5.94995 15.1754 5.94995 15.33V19.09C5.94995 19.2446 6.07531 19.37 6.22995 19.37H16.3C16.4546 19.37 16.58 19.2446 16.58 19.09V15.33C16.58 15.1754 16.4546 15.05 16.3 15.05Z" fill="white"/>
<path d="M16.3 79.77H6.22995C6.07531 79.77 5.94995 79.8954 5.94995 80.05V83.81C5.94995 83.9646 6.07531 84.09 6.22995 84.09H16.3C16.4546 84.09 16.58 83.9646 16.58 83.81V80.05C16.58 79.8954 16.4546 79.77 16.3 79.77Z" fill="white"/>
</g>
<defs>
<clipPath id="clip0_697_513">
<rect width="35" height="120" fill="white"/>
</clipPath>
</defs>
</svg>
