<svg width="53" height="120" viewBox="0 0 53 120" fill="none" xmlns="http://www.w3.org/2000/svg">
<path d="M42.17 113.87C36.54 113.87 31.98 108.87 31.98 102.71V17.29C31.98 11.12 36.54 6.13 42.17 6.13H45.03C45.03 4.09 45 2.06 45 0H22.43C15.56 0 10 5.57 10 12.43V107.57C10 114.44 15.57 120 22.43 120H45.62C45.69 117.96 45.57 115.91 45.62 113.87H42.17Z" fill="#5D005E"/>
<path d="M26.3 57.84H16.2299C16.0753 57.84 15.95 57.9654 15.95 58.12V61.88C15.95 62.0346 16.0753 62.16 16.2299 62.16H26.3C26.4546 62.16 26.58 62.0346 26.58 61.88V58.12C26.58 57.9654 26.4546 57.84 26.3 57.84Z" fill="white"/>
<path d="M26.3 36.44H16.2299C16.0753 36.44 15.95 36.5654 15.95 36.72V40.48C15.95 40.6346 16.0753 40.76 16.2299 40.76H26.3C26.4546 40.76 26.58 40.6346 26.58 40.48V36.72C26.58 36.5654 26.4546 36.44 26.3 36.44Z" fill="white"/>
<path d="M26.3 100.63H16.2299C16.0753 100.63 15.95 100.755 15.95 100.91V104.67C15.95 104.825 16.0753 104.95 16.2299 104.95H26.3C26.4546 104.95 26.58 104.825 26.58 104.67V100.91C26.58 100.755 26.4546 100.63 26.3 100.63Z" fill="white"/>
<path d="M26.3 15.05H16.2299C16.0753 15.05 15.95 15.1754 15.95 15.33V19.09C15.95 19.2446 16.0753 19.37 16.2299 19.37H26.3C26.4546 19.37 26.58 19.2446 26.58 19.09V15.33C26.58 15.1754 26.4546 15.05 26.3 15.05Z" fill="white"/>
<path d="M26.3 79.77H16.2299C16.0753 79.77 15.95 79.8954 15.95 80.05V83.81C15.95 83.9646 16.0753 84.09 16.2299 84.09H26.3C26.4546 84.09 26.58 83.9646 26.58 83.81V80.05C26.58 79.8954 26.4546 79.77 26.3 79.77Z" fill="white"/>
</svg>
