<svg width="106" height="81" viewBox="0 0 106 81" fill="none" xmlns="http://www.w3.org/2000/svg">
<path fill-rule="evenodd" clip-rule="evenodd" d="M15 0C6.71573 0 0 6.71573 0 15V66C0 74.2843 6.71573 81 15 81H91C99.2843 81 106 74.2843 106 66V15C106 6.71573 99.2843 0 91 0H15ZM25.1862 7.91731C16.9019 7.91731 10.1862 14.633 10.1862 22.9173V58.0827C10.1862 66.367 16.9019 73.0827 25.1862 73.0827H80.8138C89.0981 73.0827 95.8138 66.367 95.8138 58.0827V22.9173C95.8138 14.633 89.0981 7.91731 80.8138 7.91731H25.1862Z" fill="#FF005A"/>
<line x1="8.27734" y1="20.5978" x2="1.59266" y2="20.5978" stroke="white"/>
<line x1="8.27734" y1="29.7332" x2="1.59266" y2="29.7332" stroke="white"/>
<line x1="8.27734" y1="38.8684" x2="1.59266" y2="38.8684" stroke="white"/>
<line x1="8.27734" y1="48.0038" x2="1.59266" y2="48.0038" stroke="white"/>
<line x1="8.27734" y1="57.1392" x2="1.59266" y2="57.1392" stroke="white"/>
<line x1="104.41" y1="20.5978" x2="97.7255" y2="20.5978" stroke="white"/>
<line x1="104.41" y1="29.7332" x2="97.7255" y2="29.7332" stroke="white"/>
<line x1="104.41" y1="38.8684" x2="97.7255" y2="38.8684" stroke="white"/>
<line x1="104.41" y1="48.0038" x2="97.7255" y2="48.0038" stroke="white"/>
<line x1="104.41" y1="57.1392" x2="97.7255" y2="57.1392" stroke="white"/>
</svg>
